<?xml version="1.0" encoding="UTF-8" standalone="no"?>
<svg width="129px" height="32px" viewBox="0 0 129 32" version="1.1" xmlns="http://www.w3.org/2000/svg" xmlns:xlink="http://www.w3.org/1999/xlink">
    <!-- Generator: Sketch 3.7.1 (28215) - http://www.bohemiancoding.com/sketch -->
    <title>Group</title>
    <desc>Created with Sketch.</desc>
    <defs></defs>
    <g id="Page-1" stroke="none" stroke-width="1" fill="none" fill-rule="evenodd">
        <g id="Desktop-HD" transform="translate(-288.000000, -341.000000)" fill="#FFFFFF">
            <g id="Group" transform="translate(288.000000, 339.000000)">
                <text id="MapApp" font-family="Futura-Medium, Futura" font-size="24" font-weight="400">
                    <tspan x="31" y="25">MapApp</tspan>
                </text>
                <path d="M12,20 C15.309,20 18,17.308 18,14 C18,10.692 15.309,8 12,8 C8.691,8 6,10.691 6,14 C6,17.309 8.691,20 12,20 L12,20 Z M12,9 C14.758,9 17,11.242 17,14 C17,16.758 14.758,19 12,19 C9.242,19 7,16.758 7,14 C7,11.242 9.242,9 12,9 L12,9 Z" id="Shape"></path>
                <path d="M12,2 C5.382,2 0,7.316 0,14.001 C0,21.001 6.001,28.162 10.376,33.195 C10.392,33.215 11.094,34 11.962,34 L12.039,34 C12.906,34 13.609,33.215 13.625,33.195 C18.002,28.162 24.002,21.002 24.002,14.001 C24.002,7.316 18.619,2 12,2 L12,2 Z M12.117,31.883 C12.096,31.903 12.035,31.947 11.982,31.981 C11.972,31.954 11.898,31.895 11.853,31.848 C8.188,27.631 2,20.514 2,14.001 C2,8.487 6.487,4 12,4 C17.516,4 22.002,8.487 22.002,14.002 C22.002,20.514 15.814,27.631 12.117,31.883 L12.117,31.883 Z" id="Shape"></path>
            </g>
        </g>
    </g>
</svg>